<svg id="svg" version="1.1" xmlns="http://www.w3.org/2000/svg" xmlns:xlink="http://www.w3.org/1999/xlink" width="400" height="298.4" viewBox="0, 0, 400,298.4"><g id="svgg"><path id="path0" d="M166.478 101.202 C 153.203 104.087,150.321 122.070,162.029 128.961 C 162.488 129.232,162.400 129.395,160.949 130.961 C 146.871 146.151,144.642 171.182,156.348 182.629 L 157.809 184.058 159.188 182.968 C 164.818 178.517,179.121 182.083,189.033 190.407 C 190.549 191.681,191.053 191.976,191.236 191.696 C 191.366 191.497,192.138 190.103,192.951 188.600 L 194.429 185.867 196.081 185.866 C 196.990 185.865,199.598 185.788,201.876 185.693 L 206.019 185.521 207.805 188.427 C 208.787 190.026,209.705 191.508,209.845 191.721 C 210.051 192.036,210.376 191.848,211.550 190.737 C 213.458 188.933,216.177 187.195,220.267 185.166 C 230.329 180.173,237.729 179.485,241.908 183.155 L 242.859 183.990 244.445 182.328 C 255.610 170.631,252.786 143.906,238.974 130.562 L 237.900 129.525 239.417 128.541 C 247.474 123.317,248.643 112.136,241.847 105.304 C 232.461 95.869,216.035 102.624,216.004 115.933 C 216.002 116.850,215.948 117.600,215.884 117.600 C 215.820 117.600,214.890 117.414,213.817 117.187 C 204.710 115.258,192.047 115.393,185.267 117.492 C 184.855 117.619,184.800 117.430,184.800 115.898 C 184.800 106.358,175.837 99.168,166.478 101.202 " stroke="none" fill="#fbfbb4" fill-rule="evenodd"></path><path id="path1" d="M162.119 181.409 C 156.695 183.259,154.451 188.507,154.744 198.667 C 155.019 208.242,157.700 212.767,163.750 213.872 C 170.287 215.065,184.561 209.264,190.355 203.059 L 192.165 201.121 193.571 203.361 L 194.976 205.600 197.821 205.599 C 199.386 205.598,201.998 205.521,203.626 205.427 L 206.586 205.256 207.467 203.628 C 207.952 202.733,208.457 201.859,208.589 201.688 C 208.759 201.468,209.401 201.950,210.749 203.310 C 218.306 210.932,233.710 216.047,239.976 213.014 C 248.687 208.797,248.592 186.142,239.845 181.836 C 234.050 178.983,218.959 183.730,211.550 190.737 C 210.376 191.848,210.051 192.036,209.845 191.721 C 209.705 191.508,208.787 190.026,207.805 188.427 L 206.019 185.521 201.876 185.693 C 199.598 185.788,196.990 185.865,196.081 185.866 L 194.429 185.867 192.951 188.600 C 192.138 190.103,191.366 191.497,191.236 191.696 C 191.053 191.976,190.549 191.681,189.033 190.407 C 181.051 183.704,168.095 179.372,162.119 181.409 " stroke="none" fill="#fb9494" fill-rule="evenodd"></path><path id="path2" d="M192.267 49.891 C 127.726 54.423,81.551 114.969,94.159 178.533 C 106.141 238.944,166.165 277.036,226.105 262.268 C 269.064 251.683,301.547 215.138,307.052 171.200 C 315.531 103.530,260.258 45.117,192.267 49.891 M174.993 101.680 C 180.883 103.949,184.773 109.320,184.893 115.351 C 184.933 117.352,184.938 117.364,185.600 117.222 C 195.114 115.181,205.133 115.121,213.798 117.051 L 216.058 117.555 215.913 116.834 C 214.430 109.415,222.549 100.800,231.025 100.800 C 246.318 100.800,252.267 121.315,239.169 128.881 L 238.204 129.438 240.231 131.796 C 253.619 147.373,255.478 171.230,244.210 182.835 C 243.311 183.760,242.984 184.267,243.199 184.400 C 245.684 185.935,247.263 198.286,245.782 204.601 C 243.317 215.108,235.135 216.924,220.875 210.130 C 215.768 207.697,211.583 204.811,209.744 202.455 L 208.850 201.310 207.707 203.455 L 206.564 205.600 202.549 205.602 C 200.340 205.603,197.742 205.679,196.775 205.770 L 195.017 205.936 193.614 203.647 L 192.210 201.359 190.305 203.313 C 188.002 205.676,184.968 207.690,180.223 210.006 C 166.391 216.756,157.878 215.195,155.338 205.441 C 153.647 198.950,154.425 189.210,156.927 185.547 C 157.795 184.277,157.857 184.476,155.961 182.449 C 144.734 170.448,146.730 147.104,160.318 131.482 C 162.150 129.376,162.216 129.254,161.720 128.902 C 154.674 123.898,152.579 116.412,156.170 109.067 C 159.437 102.385,168.049 99.006,174.993 101.680 " stroke="none" fill="#b4c4fb" fill-rule="evenodd"></path><path id="path3" d="M246.195 194.133 C 246.195 194.647,246.250 194.857,246.317 194.600 C 246.384 194.343,246.384 193.923,246.317 193.667 C 246.250 193.410,246.195 193.620,246.195 194.133 M154.502 197.467 C 154.502 199.227,154.545 199.912,154.598 198.990 C 154.650 198.067,154.650 196.627,154.597 195.790 C 154.544 194.952,154.501 195.707,154.502 197.467 M246.195 200.800 C 246.195 201.313,246.250 201.523,246.317 201.267 C 246.384 201.010,246.384 200.590,246.317 200.333 C 246.250 200.077,246.195 200.287,246.195 200.800 M189.867 203.600 C 189.219 204.260,188.749 204.800,188.822 204.800 C 188.896 204.800,189.486 204.260,190.133 203.600 C 190.781 202.940,191.251 202.400,191.178 202.400 C 191.104 202.400,190.514 202.940,189.867 203.600 M194.910 205.684 C 195.030 205.803,195.654 205.861,196.297 205.812 L 197.467 205.724 196.080 205.595 C 195.317 205.524,194.790 205.564,194.910 205.684 M203.674 205.529 C 204.301 205.585,205.261 205.584,205.807 205.527 C 206.353 205.470,205.840 205.424,204.667 205.425 C 203.493 205.426,203.047 205.473,203.674 205.529 M158.400 211.333 C 158.898 211.847,159.365 212.267,159.438 212.267 C 159.511 212.267,159.164 211.847,158.667 211.333 C 158.169 210.820,157.702 210.400,157.629 210.400 C 157.555 210.400,157.902 210.820,158.400 211.333 " stroke="none" fill="#d0b4d6" fill-rule="evenodd"></path><path id="path4" d="M180.256 105.133 C 180.909 105.830,181.479 106.400,181.522 106.400 C 181.722 106.400,181.511 106.161,180.333 105.056 L 179.067 103.867 180.256 105.133 M220.252 105.267 L 219.333 106.267 220.333 105.348 C 221.264 104.492,221.456 104.267,221.252 104.267 C 221.208 104.267,220.758 104.717,220.252 105.267 M154.485 116.000 C 154.485 116.953,154.534 117.343,154.593 116.867 C 154.652 116.390,154.652 115.610,154.593 115.133 C 154.534 114.657,154.485 115.047,154.485 116.000 M184.876 115.867 C 184.878 116.600,184.930 116.868,184.991 116.463 C 185.053 116.058,185.051 115.458,184.988 115.130 C 184.924 114.802,184.874 115.133,184.876 115.867 M199.140 115.662 C 199.768 115.719,200.728 115.718,201.274 115.661 C 201.820 115.603,201.307 115.557,200.133 115.558 C 198.960 115.559,198.513 115.606,199.140 115.662 M204.600 115.917 C 204.857 115.984,205.277 115.984,205.533 115.917 C 205.790 115.850,205.580 115.795,205.067 115.795 C 204.553 115.795,204.343 115.850,204.600 115.917 M241.867 126.533 C 241.219 127.193,240.749 127.733,240.822 127.733 C 240.896 127.733,241.486 127.193,242.133 126.533 C 242.781 125.873,243.251 125.333,243.178 125.333 C 243.104 125.333,242.514 125.873,241.867 126.533 M161.990 129.022 C 162.115 129.243,161.906 129.696,161.435 130.222 L 160.679 131.067 161.597 130.204 C 162.361 129.486,162.454 129.285,162.152 129.004 C 161.857 128.731,161.827 128.734,161.990 129.022 M238.667 130.267 C 239.164 130.780,239.631 131.200,239.705 131.200 C 239.778 131.200,239.431 130.780,238.933 130.267 C 238.436 129.753,237.969 129.333,237.895 129.333 C 237.822 129.333,238.169 129.753,238.667 130.267 M148.862 158.667 C 148.862 159.180,148.917 159.390,148.984 159.133 C 149.051 158.877,149.051 158.457,148.984 158.200 C 148.917 157.943,148.862 158.153,148.862 158.667 M251.262 158.667 C 251.262 159.180,251.317 159.390,251.384 159.133 C 251.451 158.877,251.451 158.457,251.384 158.200 C 251.317 157.943,251.262 158.153,251.262 158.667 M148.862 165.867 C 148.862 166.380,148.917 166.590,148.984 166.333 C 149.051 166.077,149.051 165.657,148.984 165.400 C 148.917 165.143,148.862 165.353,148.862 165.867 M251.262 166.133 C 251.262 166.647,251.317 166.857,251.384 166.600 C 251.451 166.343,251.451 165.923,251.384 165.667 C 251.317 165.410,251.262 165.620,251.262 166.133 M156.267 182.800 C 157.063 183.607,157.775 184.267,157.848 184.267 C 157.922 184.267,157.330 183.607,156.533 182.800 C 155.737 181.993,155.025 181.333,154.952 181.333 C 154.878 181.333,155.470 181.993,156.267 182.800 M244.123 182.733 L 242.800 184.133 244.200 182.810 C 245.501 181.580,245.722 181.333,245.523 181.333 C 245.481 181.333,244.851 181.963,244.123 182.733 " stroke="none" fill="#ccd6e4" fill-rule="evenodd"></path></g></svg>